<svg width="48" height="48" viewBox="0 0 48 48" fill="none" xmlns="http://www.w3.org/2000/svg">
<path d="M5.44966 45V3.33334H21.9311C25.0484 3.33334 27.9342 3.85803 30.5885 4.90741C33.2429 5.95679 35.5577 7.43828 37.533 9.35186C39.5392 11.2346 41.0824 13.4414 42.1626 15.9722C43.2737 18.5031 43.8293 21.2346 43.8293 24.1667C43.8293 27.0988 43.2737 29.8302 42.1626 32.3611C41.0824 34.892 39.5546 37.1142 37.5793 39.0278C35.604 40.9105 33.2892 42.3765 30.6348 43.4259C27.9805 44.4753 25.0793 45 21.9311 45H5.44966ZM17.4867 33.5185H21.1441C22.6564 33.5185 24.0299 33.287 25.2645 32.8241C26.499 32.3611 27.5638 31.713 28.4589 30.8796C29.3848 30.0154 30.0793 29.0123 30.5422 27.8704C31.0361 26.7284 31.283 25.4938 31.283 24.1667C31.283 22.8395 31.0361 21.6049 30.5422 20.463C30.0793 19.321 29.3848 18.3333 28.4589 17.5C27.5638 16.6358 26.499 15.9722 25.2645 15.5093C24.0299 15.0463 22.6564 14.8148 21.1441 14.8148H17.4867V33.5185Z" fill="#F0193D"/>
</svg>
